<svg xmlns="http://www.w3.org/2000/svg" width="500" height="500" viewBox="0 0 500 500" version="1.1"><path d="M 86.638 273.505 C 85.143 275, 85 283.604, 85 371.849 C 85 457.757, 85.174 468.803, 86.557 470.777 C 88.100 472.980, 88.352 473, 114.946 473 C 139.869 473, 141.946 472.864, 144.139 471.090 L 146.500 469.179 147 435.340 L 147.500 401.500 174.500 400.934 C 205.937 400.275, 212.755 399.173, 226.500 392.530 C 244.023 384.061, 255.233 370.943, 259.650 353.735 C 261.597 346.150, 261.810 329.614, 260.058 322 C 255.681 302.968, 240.658 286.872, 219.694 278.754 C 203.684 272.554, 205.384 272.700, 144.388 272.266 C 93.413 271.904, 88.126 272.017, 86.638 273.505 M 284.872 273.653 C 283.735 275.023, 283.450 291.435, 283.211 369.403 C 283.051 421.157, 283.182 464.948, 283.500 466.718 C 284.706 473.426, 279.325 473, 362.916 473 C 435.055 473, 438.769 472.912, 440.345 471.171 C 441.763 469.605, 442 466.621, 442 450.371 C 442 436.949, 441.649 431.049, 440.800 430.200 C 439.902 429.302, 428.185 429, 394.234 429 C 364.875 429, 348.186 428.635, 346.934 427.965 C 345.152 427.011, 345 425.733, 345 411.665 C 345 401.126, 345.371 396.029, 346.200 395.200 C 347.073 394.327, 354.592 394, 373.766 394 C 390.028 394, 400.873 393.603, 402.066 392.965 C 403.879 391.995, 404 390.680, 404 372 C 404 353.320, 403.879 352.005, 402.066 351.035 C 400.872 350.396, 389.977 350, 373.601 350 C 348.394 350, 347.019 349.903, 346.035 348.066 C 345.466 347.002, 345 340.052, 345 332.622 C 345 319.796, 345.112 319.035, 347.223 317.557 C 349.152 316.205, 355.224 316, 393.274 316 L 437.102 316 438.551 312.532 C 440.298 308.351, 440.634 277.052, 438.965 273.934 C 437.955 272.048, 436.047 272, 362.087 272 C 292.764 272, 286.127 272.142, 284.872 273.653 M 148.637 316.506 C 147.240 317.903, 147.002 320.807, 147.015 336.321 C 147.024 346.320, 147.458 355.175, 147.981 356 C 148.767 357.241, 151.918 357.495, 166.216 357.470 C 182.087 357.443, 183.843 357.260, 187.692 355.229 C 193.261 352.292, 196.813 347.418, 198.158 340.869 C 200.150 331.166, 196.102 322.475, 187.533 318.059 C 182.909 315.676, 181.454 315.478, 166.420 315.184 C 152.523 314.913, 150.046 315.097, 148.637 316.506" stroke="none" fill="#ffffff" fill-rule="evenodd"/><path d="M 142.288 56.099 C 103.729 60.588, 76.100 83.450, 65.060 120 C 56.837 147.224, 59.464 183.477, 71.474 208.498 C 87.880 242.682, 117.733 261, 157.034 261 C 180.526 261, 197.847 255.047, 215.711 240.832 C 231.374 228.368, 246.107 203.531, 243.648 193.733 C 242.837 190.502, 240.665 189.729, 222.076 186.051 C 199.586 181.602, 200.849 181.356, 195.923 191.153 C 191.030 200.885, 183.620 209.065, 176.609 212.476 C 173.799 213.843, 168.076 215.465, 163.892 216.081 C 142.224 219.270, 130.153 208.263, 125.969 181.500 C 124.538 172.350, 124.540 142.425, 125.972 133.500 C 130.140 107.525, 141.095 95.973, 160.386 97.211 C 173.014 98.021, 179.547 104.355, 184.498 120.586 C 185.873 125.096, 187.631 129.028, 188.404 129.325 C 189.831 129.872, 235.619 127.291, 239.750 126.431 C 241.617 126.042, 242 125.300, 242 122.071 C 242 116.626, 236.638 100.811, 232.459 93.932 C 215.778 66.472, 180.462 51.655, 142.288 56.099 M 264.590 59.900 C 262.992 61.666, 262.898 66.453, 263.263 127.650 C 263.633 189.670, 263.775 194.023, 265.708 202.500 C 274.109 239.335, 293.235 255.844, 332.500 260.152 C 345.128 261.537, 368.091 260.728, 378.408 258.535 C 394.796 255.051, 410.846 246.614, 419.008 237.192 C 426.897 228.086, 432.632 213.816, 434.961 197.500 C 436.482 186.848, 436.335 60.735, 434.800 59.200 C 433.098 57.498, 388.902 57.498, 387.200 59.200 C 386.294 60.106, 385.998 74.975, 385.992 119.950 C 385.988 152.702, 385.545 183.324, 385.008 187.997 C 382.771 207.455, 371.820 218.071, 354.091 217.967 C 336.552 217.865, 326.998 207.796, 325.006 187.316 C 324.481 181.917, 324.040 151.153, 324.026 118.950 C 324.006 74.774, 323.705 60.105, 322.800 59.200 C 321.925 58.325, 314.123 58, 293.955 58 C 268.063 58, 266.201 58.121, 264.590 59.900" stroke="none" fill="#040404" fill-rule="evenodd"/><path d="M 0 250.002 L 0 500.004 250.250 499.752 L 500.500 499.500 500.752 249.750 L 501.004 0 250.502 0 L 0 0 0 250.002 M 0.492 250.500 C 0.492 388, 0.608 444.101, 0.750 375.170 C 0.892 306.238, 0.892 193.738, 0.750 125.170 C 0.608 56.601, 0.492 113, 0.492 250.500 M 142.288 56.099 C 103.729 60.588, 76.100 83.450, 65.060 120 C 56.837 147.224, 59.464 183.477, 71.474 208.498 C 87.880 242.682, 117.733 261, 157.034 261 C 180.526 261, 197.847 255.047, 215.711 240.832 C 231.374 228.368, 246.107 203.531, 243.648 193.733 C 242.837 190.502, 240.665 189.729, 222.076 186.051 C 199.586 181.602, 200.849 181.356, 195.923 191.153 C 191.030 200.885, 183.620 209.065, 176.609 212.476 C 173.799 213.843, 168.076 215.465, 163.892 216.081 C 142.224 219.270, 130.153 208.263, 125.969 181.500 C 124.538 172.350, 124.540 142.425, 125.972 133.500 C 130.140 107.525, 141.095 95.973, 160.386 97.211 C 173.014 98.021, 179.547 104.355, 184.498 120.586 C 185.873 125.096, 187.631 129.028, 188.404 129.325 C 189.831 129.872, 235.619 127.291, 239.750 126.431 C 241.617 126.042, 242 125.300, 242 122.071 C 242 116.626, 236.638 100.811, 232.459 93.932 C 215.778 66.472, 180.462 51.655, 142.288 56.099 M 264.590 59.900 C 262.992 61.666, 262.898 66.453, 263.263 127.650 C 263.633 189.670, 263.775 194.023, 265.708 202.500 C 274.109 239.335, 293.235 255.844, 332.500 260.152 C 345.128 261.537, 368.091 260.728, 378.408 258.535 C 394.796 255.051, 410.846 246.614, 419.008 237.192 C 426.897 228.086, 432.632 213.816, 434.961 197.500 C 436.482 186.848, 436.335 60.735, 434.800 59.200 C 433.098 57.498, 388.902 57.498, 387.200 59.200 C 386.294 60.106, 385.998 74.975, 385.992 119.950 C 385.988 152.702, 385.545 183.324, 385.008 187.997 C 382.771 207.455, 371.820 218.071, 354.091 217.967 C 336.552 217.865, 326.998 207.796, 325.006 187.316 C 324.481 181.917, 324.040 151.153, 324.026 118.950 C 324.006 74.774, 323.705 60.105, 322.800 59.200 C 321.925 58.325, 314.123 58, 293.955 58 C 268.063 58, 266.201 58.121, 264.590 59.900 M 86.638 273.505 C 85.143 275, 85 283.604, 85 371.849 C 85 457.757, 85.174 468.803, 86.557 470.777 C 88.100 472.980, 88.352 473, 114.946 473 C 139.869 473, 141.946 472.864, 144.139 471.090 L 146.500 469.179 147 435.340 L 147.500 401.500 174.500 400.934 C 205.937 400.275, 212.755 399.173, 226.500 392.530 C 244.023 384.061, 255.233 370.943, 259.650 353.735 C 261.597 346.150, 261.810 329.614, 260.058 322 C 255.681 302.968, 240.658 286.872, 219.694 278.754 C 203.684 272.554, 205.384 272.700, 144.388 272.266 C 93.413 271.904, 88.126 272.017, 86.638 273.505 M 284.872 273.653 C 283.735 275.023, 283.450 291.435, 283.211 369.403 C 283.051 421.157, 283.182 464.948, 283.500 466.718 C 284.706 473.426, 279.325 473, 362.916 473 C 435.055 473, 438.769 472.912, 440.345 471.171 C 441.763 469.605, 442 466.621, 442 450.371 C 442 436.949, 441.649 431.049, 440.800 430.200 C 439.902 429.302, 428.185 429, 394.234 429 C 364.875 429, 348.186 428.635, 346.934 427.965 C 345.152 427.011, 345 425.733, 345 411.665 C 345 401.126, 345.371 396.029, 346.200 395.200 C 347.073 394.327, 354.592 394, 373.766 394 C 390.028 394, 400.873 393.603, 402.066 392.965 C 403.879 391.995, 404 390.680, 404 372 C 404 353.320, 403.879 352.005, 402.066 351.035 C 400.872 350.396, 389.977 350, 373.601 350 C 348.394 350, 347.019 349.903, 346.035 348.066 C 345.466 347.002, 345 340.052, 345 332.622 C 345 319.796, 345.112 319.035, 347.223 317.557 C 349.152 316.205, 355.224 316, 393.274 316 L 437.102 316 438.551 312.532 C 440.298 308.351, 440.634 277.052, 438.965 273.934 C 437.955 272.048, 436.047 272, 362.087 272 C 292.764 272, 286.127 272.142, 284.872 273.653 M 148.637 316.506 C 147.240 317.903, 147.002 320.807, 147.015 336.321 C 147.024 346.320, 147.458 355.175, 147.981 356 C 148.767 357.241, 151.918 357.495, 166.216 357.470 C 182.087 357.443, 183.843 357.260, 187.692 355.229 C 193.261 352.292, 196.813 347.418, 198.158 340.869 C 200.150 331.166, 196.102 322.475, 187.533 318.059 C 182.909 315.676, 181.454 315.478, 166.420 315.184 C 152.523 314.913, 150.046 315.097, 148.637 316.506" stroke="none" fill="#fb3434" fill-rule="evenodd"/></svg>